<mxfile host="app.diagrams.net" modified="2023-06-19T10:26:15.828Z" agent="Mozilla/5.0 (Windows NT 10.0; Win64; x64) AppleWebKit/537.36 (KHTML, like Gecko) Chrome/114.0.0.0 Safari/537.36 Edg/114.0.1823.51" version="21.3.7" etag="BbNHYhq9GEzakuFB3ygt" type="github">
  <diagram name="第 1 页" id="OBXCo40Urn5ulHSm3TPH">
    <mxGraphModel>
      <root>
        <mxCell id="0" />
        <mxCell id="1" parent="0" />
      </root>
    </mxGraphModel>
  </diagram>
</mxfile>
